<?xml version="1.0" encoding="utf-8"?>
<!-- Generator: Adobe Illustrator 27.7.0, SVG Export Plug-In . SVG Version: 6.00 Build 0)  -->
<svg version="1.1" id="Layer_1" xmlns="http://www.w3.org/2000/svg" xmlns:xlink="http://www.w3.org/1999/xlink" x="0px" y="0px"
	 viewBox="0 0 500 500" enable-background="new 0 0 500 500" xml:space="preserve">
<g>
	<linearGradient id="SVGID_1_" gradientUnits="userSpaceOnUse" x1="109.1991" y1="95.1396" x2="395.6185" y2="400.2941">
		<stop  offset="0" style="stop-color:#F8AF40"/>
		<stop  offset="0.1584" style="stop-color:#F1A035"/>
		<stop  offset="0.4571" style="stop-color:#E88A25"/>
		<stop  offset="0.743" style="stop-color:#E27D1B"/>
		<stop  offset="1" style="stop-color:#E07818"/>
	</linearGradient>
	<path fill="url(#SVGID_1_)" d="M413.42,249.3c0,43.04,0,86.07,0,129.11c0,3.88-0.23,7.72-1.8,11.35
		c-2.3,5.35-6.19,9.27-11.12,12.22c-5.91,3.54-12.31,5.76-19.08,6.94c-1.47,0.25-2.97,0.37-4.46,0.37c-82.66,0.01-165.32,0-247.98,0
		c-4.28,0-8.55-0.18-12.73-1.23c-10.91-2.74-17.55-9.06-20.1-20.21c-0.2-0.88-0.16-1.82-0.16-2.73c-0.01-10.84,0-21.68-0.03-32.53
		c0-1.11,0.2-1.63,1.49-1.62c12.21,0.05,24.42,0.04,36.63,0.02c0.82,0,1.14,0.33,1.19,1.06c0.03,0.46,0.04,0.91,0.04,1.37
		c0,4.94-0.01,9.89-0.02,14.83c0,2.37,0,2.4,2.33,2.4c12.25,0.01,24.51,0,36.76,0c65.84-0.01,131.68-0.02,197.51-0.03
		c1.53,0,1.68-0.12,1.71-1.71c0.03-1.7,0.01-3.41,0.01-5.11c0.01-81.63,0.02-163.25,0.03-244.88c0-2.96,0-2.97-3.03-2.97
		c-28.12,0.01-56.24,0.04-84.36,0.03c-49.84-0.02-99.69-0.06-149.53-0.09c-3.63,0-3.62,0-3.62,3.64
		c0.01,55.54,0.03,111.08,0.04,166.62c0,0.37,0.01,0.75,0.01,1.12c0,1,0.53,1.41,1.49,1.39c1.04-0.01,2.08,0.01,3.12,0.01
		c41.04-0.01,82.08-0.02,123.12-0.03c12.96,0,25.92,0.01,38.88,0.01c1.91,0,2.04-0.09,2.04-1.92c0.01-9.39,0.04-18.78-0.02-28.16
		c-0.02-2.64,0.16-2.4-2.5-2.4c-12.08-0.01-24.17,0.05-36.25,0.02c-18.77-0.04-37.55-0.17-56.32-0.18c-6.77,0-13.28-1.11-19.55-3.69
		c-8.69-3.58-14.66-9.76-18.09-18.51c-1.75-4.45-2.42-9.07-2.46-13.77c-0.1-12.38-0.08-24.76-0.04-37.14
		c0.02-5.66,0.87-11.18,3.46-16.3c3.17-6.27,8.05-10.8,14.29-13.92c5.3-2.65,10.97-4.31,16.84-4.5c10.58-0.35,21.17-0.26,31.76-0.31
		c7.27-0.03,14.54-0.01,21.81,0.02c15.91,0.06,31.82,0.07,47.72,0.25c6.72,0.08,13.31,1.13,19.45,4.15
		c7.01,3.45,12.01,8.74,14.83,16.06c1.39,3.61,2.04,7.33,2,11.2c-0.06,6.27-0.02,12.54-0.02,18.82c0,1.58-0.04,1.58-1.6,1.58
		c-12.09-0.02-24.18-0.03-36.26,0c-1.2,0-1.6-0.3-1.58-1.52c0.07-3.86,0.05-7.73,0.05-11.59c0-1.94-0.23-2.15-2.12-2.15
		c-29.74-0.01-59.48-0.01-89.22-0.02c-1.8,0-1.88,0.07-1.88,1.9c0,9.43,0,18.86,0.01,28.29c0,2,0.07,2.08,2.13,2.08
		c23.26-0.01,46.52-0.02,69.78-0.03c8.14,0,16.28-0.06,24.42,0.08c7.94,0.14,15.63,1.54,22.5,5.83c5.34,3.34,9.15,8.02,11.53,13.83
		c2.04,4.98,2.88,10.16,2.83,15.56c-0.11,12.17-0.11,24.34-0.08,36.51c0.01,4.97-0.42,9.9-1.85,14.65
		c-2.14,7.1-6.44,12.71-12.8,16.58c-6.29,3.83-13.19,5.47-20.55,5.43c-12.13-0.06-24.26-0.04-36.39-0.03
		c-16.86,0.02-33.73,0.09-50.59,0.09c-29.74-0.01-59.48-0.06-89.22-0.08c-4.47,0-8.87-0.31-13.1-1.95
		c-8.17-3.17-13.31-9.17-16.43-17.18c-1.48-3.81-2.08-7.68-2.07-11.78c0.08-59.53,0.04-119.05,0.1-178.58
		c0.01-7.26,2.03-13.96,6.89-19.54c3.15-3.62,7.18-5.91,11.69-7.53c4.84-1.74,9.78-2.36,14.91-2.33c17.03,0.09,34.06,0.02,51.09,0
		c59.1-0.05,118.21-0.1,177.31-0.13c6.64,0,13.3-0.05,19.93,0.25c8.28,0.38,16.03,2.62,22.81,7.61c4.74,3.48,8.13,8.01,10.32,13.45
		c1.59,3.94,2.17,8.03,2.16,12.29C413.39,163.06,413.41,206.18,413.42,249.3C413.41,249.3,413.42,249.3,413.42,249.3z"/>
</g>
</svg>
